<svg xmlns="http://www.w3.org/2000/svg" version="1.1" xmlns:xlink="http://www.w3.org/1999/xlink" xmlns:svgjs="http://svgjs.dev/svgjs" viewBox="0 0 800 800"><defs><linearGradient x1="50%" y1="0%" x2="50%" y2="100%" id="ffflurry-grad" gradientTransform="rotate(270)"><stop stop-color="hsl(238, 82%, 13%)" stop-opacity="1" offset="0%"></stop><stop stop-color="hsl(305, 77%, 50%)" stop-opacity="1" offset="45%"></stop><stop stop-color="hsl(305, 77%, 80%)" stop-opacity="1" offset="100%"></stop></linearGradient></defs><rect width="100%" height="100%" fill="hsl(238, 82%, 13%)"></rect><g fill="url(#ffflurry-grad)"><rect width="308" height="3" x="2" y="753.5" rx="1.5" transform="rotate(45, 156, 755)" opacity="0.14"></rect><rect width="214" height="3" x="232" y="739.5" rx="1.5" transform="rotate(45, 339, 741)" opacity="0.97"></rect><rect width="171" height="3" x="-52.5" y="781.5" rx="1.5" transform="rotate(45, 33, 783)" opacity="0.24"></rect><rect width="251" height="3" x="378.5" y="399.5" rx="1.5" transform="rotate(45, 504, 401)" opacity="0.64"></rect><rect width="247" height="3" x="157.5" y="314.5" rx="1.5" transform="rotate(45, 281, 316)" opacity="0.44"></rect><rect width="93" height="3" x="-11.5" y="665.5" rx="1.5" transform="rotate(45, 35, 667)" opacity="0.83"></rect><rect width="299" height="3" x="125.5" y="755.5" rx="1.5" transform="rotate(45, 275, 757)" opacity="0.30"></rect><rect width="404" height="3" x="481" y="232.5" rx="1.5" transform="rotate(45, 683, 234)" opacity="0.23"></rect><rect width="296" height="3" x="612" y="312.5" rx="1.5" transform="rotate(45, 760, 314)" opacity="0.38"></rect><rect width="61" height="3" x="398.5" y="93.5" rx="1.5" transform="rotate(45, 429, 95)" opacity="0.43"></rect><rect width="399" height="3" x="25.5" y="686.5" rx="1.5" transform="rotate(45, 225, 688)" opacity="0.78"></rect><rect width="427" height="3" x="-140.5" y="487.5" rx="1.5" transform="rotate(45, 73, 489)" opacity="0.88"></rect><rect width="319" height="3" x="-130.5" y="572.5" rx="1.5" transform="rotate(45, 29, 574)" opacity="0.20"></rect><rect width="122" height="3" x="407" y="31.5" rx="1.5" transform="rotate(45, 468, 33)" opacity="0.33"></rect><rect width="127" height="3" x="687.5" y="215.5" rx="1.5" transform="rotate(45, 751, 217)" opacity="0.19"></rect><rect width="534" height="3" x="445" y="573.5" rx="1.5" transform="rotate(45, 712, 575)" opacity="0.58"></rect><rect width="346" height="3" x="193" y="127.5" rx="1.5" transform="rotate(45, 366, 129)" opacity="0.09"></rect><rect width="196" height="3" x="118" y="768.5" rx="1.5" transform="rotate(45, 216, 770)" opacity="0.99"></rect><rect width="314" height="3" x="601" y="649.5" rx="1.5" transform="rotate(45, 758, 651)" opacity="0.88"></rect><rect width="355" height="3" x="367.5" y="24.5" rx="1.5" transform="rotate(45, 545, 26)" opacity="0.40"></rect><rect width="402" height="3" x="-173" y="731.5" rx="1.5" transform="rotate(45, 28, 733)" opacity="0.70"></rect><rect width="37" height="3" x="123.5" y="548.5" rx="1.5" transform="rotate(45, 142, 550)" opacity="0.31"></rect><rect width="245" height="3" x="-31.5" y="610.5" rx="1.5" transform="rotate(45, 91, 612)" opacity="0.87"></rect><rect width="330" height="3" x="236" y="663.5" rx="1.5" transform="rotate(45, 401, 665)" opacity="0.45"></rect><rect width="375" height="3" x="-41.5" y="52.5" rx="1.5" transform="rotate(45, 146, 54)" opacity="0.22"></rect><rect width="175" height="3" x="3.5" y="756.5" rx="1.5" transform="rotate(45, 91, 758)" opacity="0.52"></rect><rect width="190" height="3" x="658" y="57.5" rx="1.5" transform="rotate(45, 753, 59)" opacity="0.22"></rect><rect width="373" height="3" x="444.5" y="665.5" rx="1.5" transform="rotate(45, 631, 667)" opacity="0.80"></rect><rect width="652" height="3" x="247" y="586.5" rx="1.5" transform="rotate(45, 573, 588)" opacity="0.89"></rect><rect width="187" height="3" x="520.5" y="319.5" rx="1.5" transform="rotate(45, 614, 321)" opacity="0.12"></rect><rect width="500" height="3" x="259" y="312.5" rx="1.5" transform="rotate(45, 509, 314)" opacity="0.09"></rect><rect width="474" height="3" x="65" y="668.5" rx="1.5" transform="rotate(45, 302, 670)" opacity="0.37"></rect><rect width="125" height="3" x="530.5" y="403.5" rx="1.5" transform="rotate(45, 593, 405)" opacity="0.48"></rect><rect width="295" height="3" x="236.5" y="771.5" rx="1.5" transform="rotate(45, 384, 773)" opacity="0.10"></rect><rect width="426" height="3" x="410" y="486.5" rx="1.5" transform="rotate(45, 623, 488)" opacity="0.08"></rect><rect width="323" height="3" x="23.5" y="601.5" rx="1.5" transform="rotate(45, 185, 603)" opacity="0.80"></rect><rect width="439" height="3" x="-165.5" y="371.5" rx="1.5" transform="rotate(45, 54, 373)" opacity="0.30"></rect><rect width="368" height="3" x="-41" y="262.5" rx="1.5" transform="rotate(45, 143, 264)" opacity="0.60"></rect><rect width="491" height="3" x="92.5" y="577.5" rx="1.5" transform="rotate(45, 338, 579)" opacity="0.74"></rect><rect width="722" height="3" x="-310" y="51.5" rx="1.5" transform="rotate(45, 51, 53)" opacity="0.22"></rect><rect width="171" height="3" x="507.5" y="248.5" rx="1.5" transform="rotate(45, 593, 250)" opacity="0.76"></rect><rect width="249" height="3" x="347.5" y="145.5" rx="1.5" transform="rotate(45, 472, 147)" opacity="0.50"></rect><rect width="451" height="3" x="478.5" y="373.5" rx="1.5" transform="rotate(45, 704, 375)" opacity="0.43"></rect><rect width="780" height="3" x="-205" y="379.5" rx="1.5" transform="rotate(45, 185, 381)" opacity="0.74"></rect><rect width="157" height="3" x="311.5" y="399.5" rx="1.5" transform="rotate(45, 390, 401)" opacity="0.79"></rect><rect width="74" height="3" x="415" y="752.5" rx="1.5" transform="rotate(45, 452, 754)" opacity="0.26"></rect><rect width="421" height="3" x="-104.5" y="685.5" rx="1.5" transform="rotate(45, 106, 687)" opacity="0.99"></rect><rect width="157" height="3" x="455.5" y="96.5" rx="1.5" transform="rotate(45, 534, 98)" opacity="0.18"></rect><rect width="310" height="3" x="292" y="585.5" rx="1.5" transform="rotate(45, 447, 587)" opacity="0.14"></rect><rect width="316" height="3" x="518" y="84.5" rx="1.5" transform="rotate(45, 676, 86)" opacity="0.09"></rect><rect width="385" height="3" x="202.5" y="187.5" rx="1.5" transform="rotate(45, 395, 189)" opacity="0.33"></rect><rect width="187" height="3" x="595.5" y="741.5" rx="1.5" transform="rotate(45, 689, 743)" opacity="0.61"></rect><rect width="205" height="3" x="285.5" y="255.5" rx="1.5" transform="rotate(45, 388, 257)" opacity="0.95"></rect><rect width="52" height="3" x="382" y="326.5" rx="1.5" transform="rotate(45, 408, 328)" opacity="0.62"></rect><rect width="112" height="3" x="523" y="759.5" rx="1.5" transform="rotate(45, 579, 761)" opacity="0.29"></rect><rect width="280" height="3" x="625" y="753.5" rx="1.5" transform="rotate(45, 765, 755)" opacity="0.34"></rect><rect width="471" height="3" x="527.5" y="153.5" rx="1.5" transform="rotate(45, 763, 155)" opacity="0.89"></rect><rect width="400" height="3" x="416" y="44.5" rx="1.5" transform="rotate(45, 616, 46)" opacity="0.13"></rect><rect width="33" height="3" x="242.5" y="110.5" rx="1.5" transform="rotate(45, 259, 112)" opacity="0.36"></rect><rect width="468" height="3" x="41" y="203.5" rx="1.5" transform="rotate(45, 275, 205)" opacity="0.51"></rect><rect width="321" height="3" x="34.5" y="143.5" rx="1.5" transform="rotate(45, 195, 145)" opacity="0.58"></rect><rect width="412" height="3" x="304" y="212.5" rx="1.5" transform="rotate(45, 510, 214)" opacity="0.95"></rect><rect width="62" height="3" x="220" y="578.5" rx="1.5" transform="rotate(45, 251, 580)" opacity="0.68"></rect><rect width="465" height="3" x="279.5" y="689.5" rx="1.5" transform="rotate(45, 512, 691)" opacity="0.18"></rect><rect width="93" height="3" x="459.5" y="514.5" rx="1.5" transform="rotate(45, 506, 516)" opacity="0.55"></rect><rect width="64" height="3" x="284" y="29.5" rx="1.5" transform="rotate(45, 316, 31)" opacity="0.26"></rect><rect width="608" height="3" x="-264" y="202.5" rx="1.5" transform="rotate(45, 40, 204)" opacity="0.24"></rect><rect width="420" height="3" x="126" y="468.5" rx="1.5" transform="rotate(45, 336, 470)" opacity="0.76"></rect><rect width="255" height="3" x="37.5" y="664.5" rx="1.5" transform="rotate(45, 165, 666)" opacity="0.69"></rect><rect width="189" height="3" x="297.5" y="35.5" rx="1.5" transform="rotate(45, 392, 37)" opacity="0.34"></rect><rect width="398" height="3" x="122" y="99.5" rx="1.5" transform="rotate(45, 321, 101)" opacity="0.45"></rect><rect width="510" height="3" x="357" y="162.5" rx="1.5" transform="rotate(45, 612, 164)" opacity="0.36"></rect><rect width="69" height="3" x="184.5" y="478.5" rx="1.5" transform="rotate(45, 219, 480)" opacity="0.78"></rect><rect width="403" height="3" x="-87.5" y="145.5" rx="1.5" transform="rotate(45, 114, 147)" opacity="0.57"></rect><rect width="396" height="3" x="29" y="34.5" rx="1.5" transform="rotate(45, 227, 36)" opacity="0.82"></rect><rect width="431" height="3" x="528.5" y="471.5" rx="1.5" transform="rotate(45, 744, 473)" opacity="0.46"></rect><rect width="175" height="3" x="368.5" y="464.5" rx="1.5" transform="rotate(45, 456, 466)" opacity="0.46"></rect></g></svg>